<svg width="24" height="24" viewBox="0 0 24 24" fill="none" xmlns="http://www.w3.org/2000/svg">
<path d="M7.00056 16C6.01558 16.0011 5.06482 15.6388 4.33043 14.9823C3.59605 14.3259 3.12968 13.4216 3.02067 12.4427C2.91167 11.4638 3.16769 10.479 3.7397 9.67714C4.3117 8.87526 5.15946 8.31263 6.12056 8.09703C5.84248 6.80012 6.09099 5.44586 6.81141 4.33218C7.53183 3.21849 8.66515 2.43661 9.96206 2.15853C11.259 1.88045 12.6132 2.12895 13.7269 2.84937C14.8406 3.56979 15.6225 4.70312 15.9006 6.00003H16.0006C17.2405 5.99878 18.4367 6.45831 19.3569 7.2894C20.2771 8.12049 20.8557 9.26386 20.9803 10.4975C21.1049 11.7312 20.7667 12.9672 20.0312 13.9655C19.2958 14.9638 18.2157 15.6533 17.0006 15.9M15.0006 13L12.0006 10M12.0006 10L9.00056 13M12.0006 10V16V22" stroke="black" stroke-width="2" stroke-linecap="round" stroke-linejoin="round"/>
</svg>
